<svg xmlns="http://www.w3.org/2000/svg" viewBox="0 0 64 64" height="512px" width="512px">
<g>
<path style="fill:#B62217;" d="M54.73,47.7a16.9,16.9,0,0,0-6.43-3.84,13,13,0,1,0-10.59,0A17.36,17.36,0,0,0,26,60.45,2.55,2.55,0,0,0,28.55,63h28.9A2.55,2.55,0,0,0,60,60.45,17,17,0,0,0,54.73,47.7ZM32.05,33A20.91,20.91,0,0,0,44.7,27.9a12.89,12.89,0,0,0,9.25,5,11,11,0,0,1-21.9,0Z"/>
<path style="fill:#4D4843;" d="M23,6V2a1,1,0,0,1,2,0V6A1,1,0,0,1,23,6ZM46,23H42a1,1,0,0,0,0,2h4A1,1,0,0,0,46,23ZM6,23H2a1,1,0,0,0,0,2H6A1,1,0,0,0,6,23Zm4.57-11A1,1,0,0,0,12,10.56L9.15,7.74A1,1,0,0,0,7.74,9.15ZM37.43,36A1,1,0,0,0,36,37.43l2.83,2.83a1,1,0,0,0,1.41-1.41ZM38.85,7.74,36,10.56A1,1,0,0,0,37.43,12l2.83-2.83A1,1,0,0,0,38.85,7.74ZM10.57,36,7.74,38.85a1,1,0,0,0,1.41,1.41L12,37.43A1,1,0,0,0,10.57,36Zm22.34,0-1.62,8.53a3,3,0,0,1-2.5,2.4l-.44,1.77A3,3,0,0,1,25.44,51H22.56a3,3,0,0,1-2.91-2.27L19.21,47a3,3,0,0,1-2.5-2.4L15.09,36C3.44,27.38,9.66,9,24,9S44.56,27.38,32.91,36ZM16.57,34.66c.56.39.36.87.74,2.34H23V30.82a3,3,0,1,1,1-5,3,3,0,1,1,1,5V37h5.69c.33-1.36.19-2,.74-2.34C41.86,27.38,36.66,11,24,11S6.15,27.39,16.57,34.66ZM18.07,41H29.93l.38-2H17.69ZM27,28a1,1,0,0,0-2,0A1,1,0,0,0,27,28Zm-6,0a1,1,0,0,0,2,0A1,1,0,0,0,21,28Zm5.41,20.24L26.72,47H21.28l.31,1.24a1,1,0,0,0,1,.76h2.88A1,1,0,0,0,26.41,48.24Zm2.92-4.05L29.55,43H18.45l.22,1.19a1,1,0,0,0,1,.81h8.68A1,1,0,0,0,29.33,44.19Z"/>
</g>
</svg>