<svg xmlns="http://www.w3.org/2000/svg" viewBox="0 0 64 64" height="512px" width="512px">
<g>
<path style="fill:#B62217;" d="m61 34.89h-42.5a3.0033 3.0033 0 0 0 -3 3v23.11a3.0033 3.0033 0 0 0 3 3h42.5a3.0033 3.0033 0 0 0 3-3v-23.11a3.0033 3.0033 0 0 0 -3-3zm0 20.11a1 1 0 0 1 -1 1 4.0042 4.0042 0 0 0 -4 4 1 1 0 0 1 -1 1h-30.5a1 1 0 0 1 -1-1 4.0046 4.0046 0 0 0 -4-4 1 1 0 0 1 -1-1v-11.1094a1 1 0 0 1 1-1 4.0046 4.0046 0 0 0 4-4 1 1 0 0 1 1-1h30.5a1 1 0 0 1 1 1 4.0042 4.0042 0 0 0 4 4 1 1 0 0 1 1 1z"/>
<path style="fill:#B62217;" d="m40.71 50.3665v3.567c1.2545-.1373 1.9408-.7645 1.9408-1.7054-.0001-.8618-.4308-1.3916-1.9408-1.8616z"/>
<path style="fill:#B62217;" d="m37.28 45.8187c0 .8236.3727 1.3335 1.8816 1.8235v-3.47c-1.2542.1178-1.8816.7847-1.8816 1.6465z"/>
<path style="fill:#B62217;" d="m54.083 39.8906h-28.6665a6.0147 6.0147 0 0 1 -4.9165 4.9165v9.2764a6.0148 6.0148 0 0 1 4.9165 4.9165h28.6665a6.0157 6.0157 0 0 1 4.917-4.9165v-9.2764a6.0156 6.0156 0 0 1 -4.917-4.9165zm-13.294 16.0227v1.1767a.8369.8369 0 0 1 -.8427.8427.8535.8535 0 0 1 -.8627-.8427v-1.2159a8.487 8.487 0 0 1 -4.0186-1.5289 1.0834 1.0834 0 1 1 1.1962-1.8035 6.9469 6.9469 0 0 0 2.9006 1.3136v-3.8615c-2.8615-.7445-4.1942-1.8226-4.1942-4.0378 0-2.0972 1.6662-3.5479 4.116-3.7434v-.4118a.8534.8534 0 0 1 .8627-.8426.8368.8368 0 0 1 .8427.8426v.431a7.1375 7.1375 0 0 1 3.0379 1.0782 1.05 1.05 0 0 1 .5881.9408 1.0876 1.0876 0 0 1 -1.6862.9017 7.1146 7.1146 0 0 0 -2.0188-.8625v3.7634c2.98.7453 4.2541 1.9407 4.2541 4.0378-.0001 2.1559-1.6862 3.5867-4.1751 3.8221z"/>
<path style="fill:none;" d="m28 24.25a6.6059 6.6059 0 0 1 6.5986-6.5986h5.9014v-6.9014a1.0009 1.0009 0 0 0 -1-1h-34.625a4.83 4.83 0 0 1 -2.875-.9586v26.2291a2.8731 2.8731 0 0 0 2.87 2.87h34.63a1.0006 1.0006 0 0 0 1-1v-6.042h-5.9014a6.6059 6.6059 0 0 1 -6.5986-6.5985z"/>
<path style="fill:none;" d="m4.875 7.75h33.25v-.875a1.0009 1.0009 0 0 0 -1-1h-32.25a1 1 0 0 1 0-2h30.875v-.875a1.0009 1.0009 0 0 0 -1-1h-29.88a2.875 2.875 0 0 0 .005 5.75z"/>
<circle style="fill:none;" cx="34.575" cy="24.25" r="1.175"/>
<path style="fill:none;" d="m42.5 19.6514h-7.9014a4.5986 4.5986 0 1 0 0 9.1972h7.9014a1.0009 1.0009 0 0 0 1-1v-7.1972a1.0009 1.0009 0 0 0 -1-1zm-7.9248 7.7734a3.1748 3.1748 0 1 1 3.1748-3.1748 3.1781 3.1781 0 0 1 -3.1748 3.1748z"/>
<path style="fill:#4D4843;" d="m42.5 17.6514v-6.9014a3.0036 3.0036 0 0 0 -2.375-2.9324v-.9426a3.0036 3.0036 0 0 0 -2.375-2.9324v-.9426a3.0033 3.0033 0 0 0 -3-3h-29.88a4.8765 4.8765 0 0 0 -4.87 4.875v30.1455a4.8754 4.8754 0 0 0 4.87 4.87h34.63a3.0033 3.0033 0 0 0 3-3v-6.042a3.0033 3.0033 0 0 0 3-3v-7.1971a3.0033 3.0033 0 0 0 -3-3zm-37.63-15.6514h29.88a1.0009 1.0009 0 0 1 1 1v.875h-30.875a1 1 0 0 0 0 2h32.25a1.0009 1.0009 0 0 1 1 1v.875h-33.25a2.875 2.875 0 0 1 -.005-5.75zm35.63 34.8906a1.0006 1.0006 0 0 1 -1 1h-34.63a2.8731 2.8731 0 0 1 -2.87-2.8701v-26.2291a4.83 4.83 0 0 0 2.875.9586h34.625a1.0009 1.0009 0 0 1 1 1v6.9014h-5.9014a6.5986 6.5986 0 1 0 0 13.1972h5.9014zm3-9.042a1.0009 1.0009 0 0 1 -1 1h-7.9014a4.5986 4.5986 0 1 1 0-9.1972h7.9014a1.0009 1.0009 0 0 1 1 1z"/>
<path style="fill:#4D4843;" d="m34.5752 21.0752a3.1748 3.1748 0 1 0 3.1748 3.1748 3.1781 3.1781 0 0 0 -3.1748-3.1748zm0 4.35a1.1748 1.1748 0 1 1 1.1748-1.1752 1.1762 1.1762 0 0 1 -1.1748 1.1748z"/>
</g>
</svg>